<?xml version="1.0" standalone="no"?>
<!DOCTYPE svg PUBLIC "-//W3C//DTD SVG 20010904//EN" "http://www.w3.org/TR/2001/REC-SVG-20010904/DTD/svg10.dtd">
<!-- Created using Krita: https://krita.org -->
<svg xmlns="http://www.w3.org/2000/svg" 
    xmlns:xlink="http://www.w3.org/1999/xlink"
    xmlns:krita="http://krita.org/namespaces/svg/krita"
    xmlns:sodipodi="http://sodipodi.sourceforge.net/DTD/sodipodi-0.dtd"
    width="614.4pt"
    height="345.6pt"
    viewBox="0 0 614.4 345.6">
<defs/>
<path id="shape0" transform="translate(-53.5623529411766, 111.927369725166)" fill="#000629" fill-rule="evenodd" stroke="#000629" stroke-width="1.44" stroke-linecap="square" stroke-linejoin="bevel" d="M30.2824 72.3595C36.8706 17.8346 71.3882 -5.87575 133.835 1.22836C227.506 11.8845 266.965 48.1008 299.506 41.2749C332.047 34.4491 397.835 7.46492 427.412 12.9649C456.988 18.4648 501.459 42.3798 530.894 43.9021C560.329 45.4244 573.953 33.9089 608.471 27.2795C642.988 20.6501 667.129 19.0296 686.329 36.3151C705.529 53.6007 750.565 104.009 749.365 114.076C748.165 124.143 713.459 262.323 704.706 266.718C695.953 271.113 531.224 259.802 486.259 266.161C441.294 272.521 213.224 270.016 197.412 267.045C181.6 264.074 49.2941 279.404 28.7529 265.703C15.0588 256.569 5.47451 207.492 0 118.471C1.78824 115.753 11.8824 100.383 30.2824 72.3595Z"/><path id="shape0" transform="matrix(0.999999972064547 0 0 0.999999972064547 -44.0329411764707 33.6003442249914)" fill="#abb9f8" fill-rule="evenodd" stroke="#000000" stroke-opacity="0" stroke-width="0" stroke-linecap="square" stroke-linejoin="bevel" d="M60.3529 52.8659C399.634 28.9516 338.616 4.30573 400.871 28.558C494.542 39.2142 472.165 7.76137 504.706 0.935473C537.247 -5.89033 534.917 26.6919 564.494 32.1919C594.07 37.6918 605.93 15.3974 635.365 16.9197C664.8 18.442 733.906 37.8637 768.424 31.2343C802.941 24.6049 707.718 44.6651 726.918 61.9506C746.118 79.2362 785.493 93.596 784.293 103.663C783.093 113.73 748.387 251.91 739.634 256.305C730.881 260.7 566.152 249.389 521.187 255.748C476.222 262.108 248.152 259.603 232.34 256.632C216.528 253.661 84.2217 268.991 63.6805 255.29C49.9864 246.156 5.47451 228.221 0 139.2C83.1059 60.1943 41.9529 80.8894 60.3529 52.8659Z"/><path id="shape1" transform="translate(-53.5623529411766, 111.927369725166)" fill="#000629" fill-rule="evenodd" stroke="#000629" stroke-width="1.44" stroke-linecap="square" stroke-linejoin="bevel" d="M30.2824 72.3595C36.8706 17.8346 71.3882 -5.87575 133.835 1.22836C227.506 11.8845 266.965 48.1008 299.506 41.2749C332.047 34.4491 397.835 7.46492 427.412 12.9649C456.988 18.4648 501.459 42.3798 530.894 43.9021C560.329 45.4244 573.953 33.9089 608.471 27.2795C642.988 20.6501 667.129 19.0296 686.329 36.3151C705.529 53.6007 750.565 104.009 749.365 114.076C748.165 124.143 713.459 262.323 704.706 266.718C695.953 271.113 531.224 259.802 486.259 266.161C441.294 272.521 213.224 270.016 197.412 267.045C181.6 264.074 49.2941 279.404 28.7529 265.703C15.0588 256.569 5.47451 207.492 0 118.471C1.78824 115.753 11.8824 100.383 30.2824 72.3595Z"/><path id="shape01" transform="matrix(0.999999972064547 0 0 0.999999972064547 -35.1864631906232 68.4298384752851)" fill="#444b73" fill-rule="evenodd" stroke="#000000" stroke-opacity="0" stroke-width="0" stroke-linecap="square" stroke-linejoin="bevel" d="M7.4594 27.3175C14.0476 -27.2074 100.236 36.345 162.683 43.4491C256.354 54.1053 251.06 36.4269 283.601 29.601C316.142 22.7752 393.082 39.8397 422.659 45.3397C452.235 50.8396 505.107 31.6144 534.542 33.1367C563.977 34.659 591.647 7.08555 626.165 0.456153C660.682 -6.17325 681.718 61.3732 700.918 78.6587C720.118 95.9443 759.493 110.304 758.293 120.371C757.093 130.438 722.387 268.618 713.634 273.013C704.881 277.408 540.152 266.097 495.187 272.456C450.222 278.816 222.152 276.311 206.34 273.34C190.528 270.369 58.2223 285.699 37.6811 271.998C23.987 262.864 14.4027 213.787 8.92817 124.766C10.7164 122.048 -10.9406 55.341 7.4594 27.3175Z"/><path id="shape2" transform="translate(-53.5623529411766, 111.927369725166)" fill="#000629" fill-rule="evenodd" stroke="#000629" stroke-width="1.44" stroke-linecap="square" stroke-linejoin="bevel" d="M30.2824 72.3595C36.8706 17.8346 71.3882 -5.87575 133.835 1.22836C227.506 11.8845 266.965 48.1008 299.506 41.2749C332.047 34.4491 397.835 7.46492 427.412 12.9649C456.988 18.4648 501.459 42.3798 530.894 43.9021C560.329 45.4244 573.953 33.9089 608.471 27.2795C642.988 20.6501 667.129 19.0296 686.329 36.3151C705.529 53.6007 750.565 104.009 749.365 114.076C748.165 124.143 713.459 262.323 704.706 266.718C695.953 271.113 531.224 259.802 486.259 266.161C441.294 272.521 213.224 270.016 197.412 267.045C181.6 264.074 49.2941 279.404 28.7529 265.703C15.0588 256.569 5.47451 207.492 0 118.471C1.78824 115.753 11.8824 100.383 30.2824 72.3595Z"/><path id="shape02" transform="matrix(0.999999972064547 0 0 0.999999972064547 21.600527511135 139.300243107158)" fill="#000629" fill-rule="evenodd" stroke="#000629" stroke-width="1.44" stroke-linecap="square" stroke-linejoin="bevel" d="M30.2824 72.3595C36.8706 17.8346 71.3882 -5.87575 133.835 1.22836C227.506 11.8845 266.965 48.1008 299.506 41.2749C332.047 34.4491 397.835 7.46492 427.412 12.9649C456.988 18.4648 501.459 42.3798 530.894 43.9021C560.329 45.4244 573.953 33.9089 608.471 27.2795C642.988 20.6501 667.129 19.0296 686.329 36.3151C705.529 53.6007 750.565 104.009 749.365 114.076C748.165 124.143 713.459 262.323 704.706 266.718C695.953 271.113 531.224 259.802 486.259 266.161C441.294 272.521 213.224 270.016 197.412 267.045C181.6 264.074 49.2941 279.404 28.7529 265.703C15.0588 256.569 5.47451 207.492 0 118.471C1.78824 115.753 11.8824 100.383 30.2824 72.3595Z"/><path id="shape3" transform="translate(119.702361961792, 69.2401467564137)" fill="#000629" fill-rule="evenodd" stroke="#000000" stroke-opacity="0" stroke-width="0" stroke-linecap="square" stroke-linejoin="bevel" d="M21.1799 17.2345L4.29255 13.7969L33.3422 0L45.2216 20.1629L28.6836 18.4267L45.6042 33.7572L26.2378 29.3994L41.4281 42.959L21.7789 37.9935L15.8059 57.8902L7.304 51.8657L16.4215 33.0686L0 24.6654L19.8822 27.2465L4.65859 17.0146Z"/>
</svg>
